# xmcd
# 
# Track frame offsets:
#     183
#     17490
#     30273
# 
# Disc length: 616
# 
# Revision: 9
# Processed by: cddbd v1.5.2PL0 Copyright (c) Steve Scherf et al.
# Submitted via: fre:ac v1.0.31
# 
DISCID=11026603
DTITLE=Nirvana - All Apologies CDS
DYEAR=1993
DGENRE=Grunge
TTITLE0=All Apologies (LP Version)
TTITLE1=Rape Me (LP Version)
TTITLE2=Moist Vagina (Previously Unreleased)
EXTD=
EXTT0=
EXTT1=
EXTT2=
PLAYORDER=
